<svg width="800" height="920" viewBox="0 0 800 920" fill="none" xmlns="http://www.w3.org/2000/svg">
  <rect width="800" height="920" rx="54" fill="#EEF2DD"/>
  <path d="M252 168C252 130.445 282.445 100 320 100H480C517.555 100 548 130.445 548 168V752C548 789.555 517.555 820 480 820H320C282.445 820 252 789.555 252 752V168Z" fill="#C9E18D"/>
  <path d="M280 192C280 156.654 308.654 128 344 128H456C491.346 128 520 156.654 520 192V728C520 763.346 491.346 792 456 792H344C308.654 792 280 763.346 280 728V192Z" fill="#DDF0B5"/>
  <circle cx="470" cy="208" r="38" fill="#B7D375"/>
  <circle cx="392" cy="208" r="38" fill="#CBE58C"/>
  <circle cx="470" cy="286" r="38" fill="#D9F0AB"/>
  <path d="M278 260C320 240 340 290 382 270C424 250 438 216 480 224C512 230 530 260 548 270V740C548 784.183 512.183 820 468 820H332C287.817 820 252 784.183 252 740V274C260 270 268 266 278 260Z" fill="#B8D76D"/>
</svg>
